<svg width="44" height="48" viewBox="0 0 44 48" fill="none" xmlns="http://www.w3.org/2000/svg">
<g clip-path="url(#clip0)" filter="url(#filter0_d)">
<path d="M13.0637 33.9949C12.2527 33.1802 12.6755 33.4099 10.7192 32.8839C9.83161 32.6449 9.05134 32.1855 8.34574 31.6352L4.11121 42.0639C3.70147 43.0736 4.46681 44.1705 5.55134 44.1292L10.4691 43.9408L13.8515 47.5296C14.5981 48.3208 15.9085 48.0742 16.3183 47.0646L21.1763 35.1002C20.1645 35.6664 19.0417 35.9983 17.8807 35.9983C16.0607 35.9983 14.3508 35.2867 13.0637 33.9949ZM39.7272 42.0639L35.4927 31.6352C34.7871 32.1864 34.0068 32.6449 33.1192 32.8839C31.1527 33.4127 31.5839 33.1821 30.7747 33.9949C29.4876 35.2867 27.7768 35.9983 25.9568 35.9983C24.7957 35.9983 23.6729 35.6655 22.6612 35.1002L27.5192 47.0646C27.9289 48.0742 29.2403 48.3208 29.986 47.5296L33.3693 43.9408L38.2871 44.1292C39.3716 44.1705 40.1369 43.0727 39.7272 42.0639ZM28.5459 31.8733C29.972 30.4155 30.1353 30.5411 32.1663 29.9852C33.4627 29.6299 34.4763 28.5939 34.8235 27.2683C35.5216 24.6058 35.3405 24.9274 37.2455 22.9792C38.1947 22.0089 38.5652 20.5942 38.218 19.2686C37.5208 16.608 37.5199 16.9792 38.218 14.3158C38.5652 12.9902 38.1947 11.5755 37.2455 10.6052C35.3405 8.65706 35.5216 8.97769 34.8235 6.31613C34.4763 4.9905 33.4627 3.95456 32.1663 3.59925C29.5641 2.88581 29.8777 3.07238 27.9709 1.12331C27.0217 0.153002 25.6376 -0.226685 24.3412 0.128627C21.74 0.841127 22.1031 0.842064 19.4972 0.128627C18.2008 -0.226685 16.8167 0.152065 15.8675 1.12331C13.9625 3.07144 14.2761 2.88581 11.6731 3.59925C10.3767 3.95456 9.36308 4.9905 9.01588 6.31613C8.31868 8.97769 8.49881 8.65706 6.59387 10.6052C5.64467 11.5755 5.27321 12.9902 5.62134 14.3158C6.31854 16.9746 6.31947 16.6033 5.62134 19.2677C5.27414 20.5933 5.64467 22.008 6.59387 22.9792C8.49881 24.9274 8.31774 24.6058 9.01588 27.2683C9.36308 28.5939 10.3767 29.6299 11.6731 29.9852C13.7619 30.5571 13.9177 30.4671 15.2925 31.8733C16.5273 33.1361 18.4509 33.3621 19.9349 32.4189C20.5284 32.0405 21.2168 31.8396 21.9197 31.8396C22.6226 31.8396 23.311 32.0405 23.9044 32.4189C25.3875 33.3621 27.3111 33.1361 28.5459 31.8733ZM13.1141 16.4946C13.1141 11.523 17.0565 7.49269 21.9192 7.49269C26.7819 7.49269 30.7243 11.523 30.7243 16.4946C30.7243 21.4661 26.7819 25.4964 21.9192 25.4964C17.0565 25.4964 13.1141 21.4661 13.1141 16.4946Z" fill="#0D5C63"/>
</g>
<defs>
<filter id="filter0_d" x="0" y="0" width="43.84" height="56" filterUnits="userSpaceOnUse" color-interpolation-filters="sRGB">
<feFlood flood-opacity="0" result="BackgroundImageFix"/>
<feColorMatrix in="SourceAlpha" type="matrix" values="0 0 0 0 0 0 0 0 0 0 0 0 0 0 0 0 0 0 127 0" result="hardAlpha"/>
<feOffset dy="4"/>
<feGaussianBlur stdDeviation="2"/>
<feComposite in2="hardAlpha" operator="out"/>
<feColorMatrix type="matrix" values="0 0 0 0 0 0 0 0 0 0 0 0 0 0 0 0 0 0 0.25 0"/>
<feBlend mode="normal" in2="BackgroundImageFix" result="effect1_dropShadow"/>
<feBlend mode="normal" in="SourceGraphic" in2="effect1_dropShadow" result="shape"/>
</filter>
<clipPath id="clip0">
<rect width="35.84" height="48" fill="white" transform="translate(4)"/>
</clipPath>
</defs>
</svg>
